<svg width="88" height="88" viewBox="0 0 88 88" fill="none" xmlns="http://www.w3.org/2000/svg">
<g filter="url(#filter0_d_2_443)">
<rect width="80" height="80" rx="16" fill="#262626"/>
<path d="M6.58523 62.8182V26.8182H13.7443V31.2159H14.0682C14.3864 30.5114 14.8466 29.7955 15.4489 29.0682C16.0625 28.3295 16.858 27.7159 17.8352 27.2273C18.8239 26.7273 20.0511 26.4773 21.517 26.4773C23.4261 26.4773 25.1875 26.9773 26.8011 27.9773C28.4148 28.9659 29.7045 30.4602 30.6705 32.4602C31.6364 34.4489 32.1193 36.9432 32.1193 39.9432C32.1193 42.8636 31.6477 45.3295 30.7045 47.3409C29.7727 49.3409 28.5 50.858 26.8864 51.892C25.2841 52.9148 23.4886 53.4261 21.5 53.4261C20.0909 53.4261 18.892 53.1932 17.9034 52.7273C16.9261 52.2614 16.125 51.6761 15.5 50.9716C14.875 50.2557 14.3977 49.5341 14.0682 48.8068H13.8466V62.8182H6.58523ZM13.6932 39.9091C13.6932 41.4659 13.9091 42.8239 14.3409 43.983C14.7727 45.142 15.3977 46.0455 16.2159 46.6932C17.0341 47.3295 18.0284 47.6477 19.1989 47.6477C20.3807 47.6477 21.3807 47.3239 22.1989 46.6761C23.017 46.017 23.6364 45.108 24.0568 43.9489C24.4886 42.7784 24.7045 41.4318 24.7045 39.9091C24.7045 38.3977 24.4943 37.0682 24.0739 35.9205C23.6534 34.7727 23.0341 33.875 22.2159 33.2273C21.3977 32.5795 20.392 32.2557 19.1989 32.2557C18.017 32.2557 17.017 32.5682 16.1989 33.1932C15.392 33.8182 14.7727 34.7045 14.3409 35.8523C13.9091 37 13.6932 38.3523 13.6932 39.9091ZM43.2216 37.8636V53H35.9602V18.0909H43.017V31.4375H43.3239C43.9148 29.892 44.8693 28.6818 46.1875 27.8068C47.5057 26.9205 49.1591 26.4773 51.1477 26.4773C52.9659 26.4773 54.5511 26.875 55.9034 27.6705C57.267 28.4545 58.3239 29.5852 59.0739 31.0625C59.8352 32.5284 60.2102 34.2841 60.1989 36.3295V53H52.9375V37.625C52.9489 36.0114 52.5398 34.7557 51.7102 33.858C50.892 32.9602 49.7443 32.5114 48.267 32.5114C47.2784 32.5114 46.4034 32.7216 45.642 33.142C44.892 33.5625 44.3011 34.1761 43.8693 34.983C43.4489 35.7784 43.233 36.7386 43.2216 37.8636Z" fill="#FAFAFA"/>
<path d="M69.1577 53.4432C68.0327 53.4432 67.0668 53.0455 66.2599 52.25C65.4645 51.4432 65.0668 50.4773 65.0668 49.3523C65.0668 48.2386 65.4645 47.2841 66.2599 46.4886C67.0668 45.6932 68.0327 45.2955 69.1577 45.2955C70.2486 45.2955 71.2031 45.6932 72.0213 46.4886C72.8395 47.2841 73.2486 48.2386 73.2486 49.3523C73.2486 50.1023 73.0554 50.7898 72.669 51.4148C72.294 52.0284 71.7997 52.5227 71.1861 52.8977C70.5724 53.2614 69.8963 53.4432 69.1577 53.4432Z" fill="#7C3AED"/>
<path d="M6.58523 62.8182H5.58523V63.8182H6.58523V62.8182ZM6.58523 26.8182V25.8182H5.58523V26.8182H6.58523ZM13.7443 26.8182H14.7443V25.8182H13.7443V26.8182ZM13.7443 31.2159H12.7443V32.2159H13.7443V31.2159ZM14.0682 31.2159V32.2159H14.7138L14.9796 31.6275L14.0682 31.2159ZM15.4489 29.0682L14.6797 28.4292L14.6787 28.4304L15.4489 29.0682ZM17.8352 27.2273L18.2824 28.1217L18.2865 28.1196L17.8352 27.2273ZM26.8011 27.9773L26.2744 28.8273L26.2787 28.83L26.8011 27.9773ZM30.6705 32.4602L29.77 32.8951L29.7709 32.8971L30.6705 32.4602ZM30.7045 47.3409L29.7991 46.9163L29.7981 46.9186L30.7045 47.3409ZM26.8864 51.892L27.4244 52.735L27.4259 52.734L26.8864 51.892ZM17.9034 52.7273L17.4731 53.6299L17.4771 53.6319L17.9034 52.7273ZM15.5 50.9716L14.7467 51.6293L14.7519 51.6352L15.5 50.9716ZM14.0682 48.8068L14.979 48.3941L14.7129 47.8068H14.0682V48.8068ZM13.8466 48.8068V47.8068H12.8466V48.8068H13.8466ZM13.8466 62.8182V63.8182H14.8466V62.8182H13.8466ZM16.2159 46.6932L15.5952 47.4773L15.602 47.4825L16.2159 46.6932ZM22.1989 46.6761L22.8196 47.4602L22.8262 47.4549L22.1989 46.6761ZM24.0568 43.9489L23.1186 43.6027L23.1168 43.6079L24.0568 43.9489ZM24.0739 35.9205L25.0128 35.5765L24.0739 35.9205ZM22.2159 33.2273L22.8366 32.4432L22.2159 33.2273ZM16.1989 33.1932L15.5918 32.3985L15.5865 32.4026L16.1989 33.1932ZM14.3409 35.8523L13.405 35.5001L14.3409 35.8523ZM7.58523 62.8182V26.8182H5.58523V62.8182H7.58523ZM6.58523 27.8182H13.7443V25.8182H6.58523V27.8182ZM12.7443 26.8182V31.2159H14.7443V26.8182H12.7443ZM13.7443 32.2159H14.0682V30.2159H13.7443V32.2159ZM14.9796 31.6275C15.2539 31.0199 15.6616 30.3791 16.2191 29.706L14.6787 28.4304C14.0315 29.2118 13.5188 30.0028 13.1568 30.8043L14.9796 31.6275ZM16.2181 29.7072C16.7318 29.0888 17.412 28.5569 18.2824 28.1217L17.388 26.3328C16.3039 26.8749 15.3932 27.5703 14.6797 28.4292L16.2181 29.7072ZM18.2865 28.1196C19.0975 27.7095 20.1593 27.4773 21.517 27.4773V25.4773C19.943 25.4773 18.5502 25.7451 17.3839 26.3349L18.2865 28.1196ZM21.517 27.4773C23.2411 27.4773 24.8199 27.9259 26.2744 28.8273L27.3279 27.1273C25.5551 26.0286 23.6112 25.4773 21.517 25.4773V27.4773ZM26.2787 28.83C27.7022 29.7021 28.8727 31.0372 29.77 32.8951L31.5709 32.0253C30.5364 29.8832 29.1273 28.2297 27.3236 27.1246L26.2787 28.83ZM29.7709 32.8971C30.6515 34.71 31.1193 37.0433 31.1193 39.9432H33.1193C33.1193 36.8431 32.6212 34.1877 31.57 32.0233L29.7709 32.8971ZM31.1193 39.9432C31.1193 42.7611 30.6637 45.0727 29.7991 46.9163L31.6099 47.7655C32.6318 45.5863 33.1193 42.9662 33.1193 39.9432H31.1193ZM29.7981 46.9186C28.934 48.7733 27.7778 50.133 26.3468 51.0501L27.4259 52.734C29.2222 51.5829 30.6115 49.9085 31.611 47.7632L29.7981 46.9186ZM26.3483 51.0491C24.9144 51.9644 23.3072 52.4261 21.5 52.4261V54.4261C23.67 54.4261 25.6538 53.8651 27.4244 52.735L26.3483 51.0491ZM21.5 52.4261C20.1972 52.4261 19.1523 52.2103 18.3297 51.8227L17.4771 53.6319C18.6318 54.176 19.9846 54.4261 21.5 54.4261V52.4261ZM18.3337 51.8246C17.4594 51.4078 16.7719 50.8985 16.2481 50.308L14.7519 51.6352C15.4781 52.4538 16.3929 53.115 17.4731 53.6299L18.3337 51.8246ZM16.2533 50.3139C15.6807 49.658 15.2615 49.0175 14.979 48.3941L13.1573 49.2195C13.534 50.0507 14.0693 50.8534 14.7467 51.6292L16.2533 50.3139ZM14.0682 47.8068H13.8466V49.8068H14.0682V47.8068ZM12.8466 48.8068V62.8182H14.8466V48.8068H12.8466ZM13.8466 61.8182H6.58523V63.8182H13.8466V61.8182ZM12.6932 39.9091C12.6932 41.5555 12.9212 43.0366 13.4038 44.3321L15.278 43.6338C14.897 42.6111 14.6932 41.3763 14.6932 39.9091H12.6932ZM13.4038 44.3321C13.8875 45.6303 14.6092 46.6967 15.5952 47.4772L16.8366 45.9091C16.1862 45.3942 15.658 44.6538 15.278 43.6338L13.4038 44.3321ZM15.602 47.4825C16.6181 48.2729 17.8363 48.6477 19.1989 48.6477V46.6477C18.2206 46.6477 17.45 46.3862 16.8298 45.9038L15.602 47.4825ZM19.1989 48.6477C20.5745 48.6477 21.8015 48.2661 22.8196 47.4602L21.5782 45.8921C20.9598 46.3816 20.1868 46.6477 19.1989 46.6477V48.6477ZM22.8262 47.4549C23.8097 46.6626 24.5251 45.5905 24.9969 44.2899L23.1168 43.6079C22.7477 44.6254 22.2244 45.3715 21.5715 45.8974L22.8262 47.4549ZM24.995 44.295C25.4756 42.9923 25.7045 41.5247 25.7045 39.9091H23.7045C23.7045 41.3389 23.5017 42.5645 23.1186 43.6027L24.995 44.295ZM25.7045 39.9091C25.7045 38.3071 25.4819 36.857 25.0128 35.5765L23.1349 36.2644C23.5067 37.2794 23.7045 38.4883 23.7045 39.9091H25.7045ZM25.0128 35.5765C24.5399 34.2856 23.8227 33.2239 22.8366 32.4432L21.5952 34.0113C22.2455 34.5261 22.7669 35.2599 23.1349 36.2644L25.0128 35.5765ZM22.8366 32.4432C21.8169 31.6359 20.5834 31.2557 19.1989 31.2557V33.2557C20.2007 33.2557 20.9786 33.5232 21.5952 34.0113L22.8366 32.4432ZM19.1989 31.2557C17.8315 31.2557 16.6095 31.6211 15.5918 32.3985L16.8059 33.9879C17.4246 33.5152 18.2025 33.2557 19.1989 33.2557V31.2557ZM15.5865 32.4026C14.6062 33.162 13.8887 34.2143 13.405 35.5001L15.2769 36.2044C15.6567 35.1948 16.1779 34.4744 16.8113 33.9837L15.5865 32.4026ZM13.405 35.5001C12.9211 36.7862 12.6932 38.263 12.6932 39.9091H14.6932C14.6932 38.4415 14.8971 37.2138 15.2769 36.2044L13.405 35.5001ZM43.2216 37.8636L42.2216 37.8535V37.8636H43.2216ZM43.2216 53V54H44.2216V53H43.2216ZM35.9602 53H34.9602V54H35.9602V53ZM35.9602 18.0909V17.0909H34.9602V18.0909H35.9602ZM43.017 18.0909H44.017V17.0909H43.017V18.0909ZM43.017 31.4375H42.017V32.4375H43.017V31.4375ZM43.3239 31.4375V32.4375H44.0121L44.2579 31.7946L43.3239 31.4375ZM46.1875 27.8068L46.7406 28.64L46.7455 28.6367L46.1875 27.8068ZM55.9034 27.6705L55.3964 28.5324L55.4049 28.5374L55.9034 27.6705ZM59.0739 31.0625L58.1822 31.5152L58.1864 31.5234L59.0739 31.0625ZM60.1989 36.3295L59.1989 36.324V36.3295H60.1989ZM60.1989 53V54H61.1989V53H60.1989ZM52.9375 53H51.9375V54H52.9375V53ZM52.9375 37.625L51.9375 37.618V37.625H52.9375ZM51.7102 33.858L50.9711 34.5316L50.9758 34.5366L51.7102 33.858ZM45.642 33.142L45.1586 32.2666L45.153 32.2698L45.642 33.142ZM43.8693 34.983L42.9876 34.5111L42.9852 34.5156L43.8693 34.983ZM42.2216 37.8636V53H44.2216V37.8636H42.2216ZM43.2216 52H35.9602V54H43.2216V52ZM36.9602 53V18.0909H34.9602V53H36.9602ZM35.9602 19.0909H43.017V17.0909H35.9602V19.0909ZM42.017 18.0909V31.4375H44.017V18.0909H42.017ZM43.017 32.4375H43.3239V30.4375H43.017V32.4375ZM44.2579 31.7946C44.7781 30.4342 45.6041 29.3943 46.7405 28.64L45.6345 26.9737C44.1346 27.9693 43.0515 29.3499 42.3898 31.0804L44.2579 31.7946ZM46.7455 28.6367C47.8615 27.8862 49.3077 27.4773 51.1477 27.4773V25.4773C49.0105 25.4773 47.1499 25.9547 45.6295 26.977L46.7455 28.6367ZM51.1477 27.4773C52.8163 27.4773 54.2208 27.8409 55.3964 28.5324L56.4104 26.8085C54.8815 25.9091 53.1155 25.4773 51.1477 25.4773V27.4773ZM55.4049 28.5374C56.5908 29.2192 57.5153 30.2016 58.1822 31.5152L59.9655 30.6098C59.1325 28.9689 57.9433 27.6898 56.4019 26.8035L55.4049 28.5374ZM58.1864 31.5234C58.8572 32.8149 59.2096 34.4028 59.1989 36.324L61.1988 36.3351C61.2109 34.1654 60.8133 32.2419 59.9613 30.6016L58.1864 31.5234ZM59.1989 36.3295V53H61.1989V36.3295H59.1989ZM60.1989 52H52.9375V54H60.1989V52ZM53.9375 53V37.625H51.9375V53H53.9375ZM53.9375 37.632C53.95 35.8479 53.496 34.317 52.4447 33.1793L50.9758 34.5366C51.5836 35.1944 51.9477 36.1748 51.9375 37.618L53.9375 37.632ZM52.4493 33.1843C51.4014 32.0346 49.9598 31.5114 48.267 31.5114V33.5114C49.5288 33.5114 50.3826 33.8859 50.9711 34.5316L52.4493 33.1843ZM48.267 31.5114C47.1328 31.5114 46.0872 31.7538 45.1586 32.2667L46.1255 34.0174C46.7196 33.6893 47.4241 33.5114 48.267 33.5114V31.5114ZM45.153 32.2698C44.2258 32.7896 43.5034 33.5474 42.9877 34.5111L44.751 35.4548C45.0988 34.8049 45.5583 34.3354 46.1311 34.0143L45.153 32.2698ZM42.9852 34.5156C42.4739 35.483 42.2342 36.6082 42.2216 37.8535L44.2215 37.8737C44.2317 36.8691 44.4238 36.0738 44.7534 35.4503L42.9852 34.5156ZM66.2599 52.25L65.5478 52.9521L65.5528 52.9571L65.5579 52.9621L66.2599 52.25ZM66.2599 46.4886L65.5579 45.7765L65.5528 45.7815L66.2599 46.4886ZM72.0213 46.4886L71.3242 47.2056L72.0213 46.4886ZM72.669 51.4148L71.8184 50.8889L71.8158 50.8933L72.669 51.4148ZM71.1861 52.8977L71.6959 53.7581L71.7075 53.751L71.1861 52.8977ZM69.1577 52.4432C68.2975 52.4432 67.5832 52.1503 66.962 51.5379L65.5579 52.9621C66.5503 53.9406 67.7678 54.4432 69.1577 54.4432V52.4432ZM66.972 51.5479C66.3596 50.9267 66.0668 50.2124 66.0668 49.3523H64.0668C64.0668 50.7421 64.5694 51.9596 65.5478 52.9521L66.972 51.5479ZM66.0668 49.3523C66.0668 48.5069 66.357 47.8058 66.967 47.1957L65.5528 45.7815C64.572 46.7624 64.0668 47.9704 64.0668 49.3523H66.0668ZM66.962 47.2007C67.5832 46.5883 68.2975 46.2955 69.1577 46.2955V44.2955C67.7678 44.2955 66.5503 44.7981 65.5579 45.7765L66.962 47.2007ZM69.1577 46.2955C69.9752 46.2955 70.6832 46.5824 71.3242 47.2056L72.7184 45.7716C71.7231 44.804 70.5219 44.2955 69.1577 44.2955V46.2955ZM71.3242 47.2056C71.9541 47.818 72.2486 48.5161 72.2486 49.3523H74.2486C74.2486 47.9611 73.7249 46.7501 72.7184 45.7716L71.3242 47.2056ZM72.2486 49.3523C72.2486 49.9206 72.105 50.4254 71.8184 50.889L73.5196 51.9406C74.0058 51.1542 74.2486 50.284 74.2486 49.3523H72.2486ZM71.8158 50.8933C71.5235 51.3716 71.1429 51.7522 70.6646 52.0444L71.7075 53.751C72.4565 53.2933 73.0646 52.6852 73.5223 51.9362L71.8158 50.8933ZM70.6763 52.0374C70.2226 52.3063 69.7236 52.4432 69.1577 52.4432V54.4432C70.069 54.4432 70.9223 54.2164 71.6959 53.758L70.6763 52.0374Z" fill="#5B21B6"/>
</g>
<defs>
<filter id="filter0_d_2_443" x="0" y="0" width="88" height="88" filterUnits="userSpaceOnUse" color-interpolation-filters="sRGB">
<feFlood flood-opacity="0" result="BackgroundImageFix"/>
<feColorMatrix in="SourceAlpha" type="matrix" values="0 0 0 0 0 0 0 0 0 0 0 0 0 0 0 0 0 0 127 0" result="hardAlpha"/>
<feOffset dx="4" dy="4"/>
<feGaussianBlur stdDeviation="2"/>
<feComposite in2="hardAlpha" operator="out"/>
<feColorMatrix type="matrix" values="0 0 0 0 0 0 0 0 0 0 0 0 0 0 0 0 0 0 0.25 0"/>
<feBlend mode="normal" in2="BackgroundImageFix" result="effect1_dropShadow_2_443"/>
<feBlend mode="normal" in="SourceGraphic" in2="effect1_dropShadow_2_443" result="shape"/>
</filter>
</defs>
</svg>
