<svg width="70" height="56" viewBox="0 0 70 56" fill="none" xmlns="http://www.w3.org/2000/svg">
<path d="M2.89773 54.8182V18.8182H10.0568V23.2159H10.3807C10.6989 22.5114 11.1591 21.7955 11.7614 21.0682C12.375 20.3295 13.1705 19.7159 14.1477 19.2273C15.1364 18.7273 16.3636 18.4773 17.8295 18.4773C19.7386 18.4773 21.5 18.9773 23.1136 19.9773C24.7273 20.9659 26.017 22.4602 26.983 24.4602C27.9489 26.4489 28.4318 28.9432 28.4318 31.9432C28.4318 34.8636 27.9602 37.3295 27.017 39.3409C26.0852 41.3409 24.8125 42.858 23.1989 43.892C21.5966 44.9148 19.8011 45.4261 17.8125 45.4261C16.4034 45.4261 15.2045 45.1932 14.2159 44.7273C13.2386 44.2614 12.4375 43.6761 11.8125 42.9716C11.1875 42.2557 10.7102 41.5341 10.3807 40.8068H10.1591V54.8182H2.89773ZM10.0057 31.9091C10.0057 33.4659 10.2216 34.8239 10.6534 35.983C11.0852 37.142 11.7102 38.0455 12.5284 38.6932C13.3466 39.3295 14.3409 39.6477 15.5114 39.6477C16.6932 39.6477 17.6932 39.3239 18.5114 38.6761C19.3295 38.017 19.9489 37.108 20.3693 35.9489C20.8011 34.7784 21.017 33.4318 21.017 31.9091C21.017 30.3977 20.8068 29.0682 20.3864 27.9205C19.9659 26.7727 19.3466 25.875 18.5284 25.2273C17.7102 24.5795 16.7045 24.2557 15.5114 24.2557C14.3295 24.2557 13.3295 24.5682 12.5114 25.1932C11.7045 25.8182 11.0852 26.7045 10.6534 27.8523C10.2216 29 10.0057 30.3523 10.0057 31.9091ZM39.5341 29.8636V45H32.2727V10.0909H39.3295V23.4375H39.6364C40.2273 21.892 41.1818 20.6818 42.5 19.8068C43.8182 18.9205 45.4716 18.4773 47.4602 18.4773C49.2784 18.4773 50.8636 18.875 52.2159 19.6705C53.5795 20.4545 54.6364 21.5852 55.3864 23.0625C56.1477 24.5284 56.5227 26.2841 56.5114 28.3295V45H49.25V29.625C49.2614 28.0114 48.8523 26.7557 48.0227 25.858C47.2045 24.9602 46.0568 24.5114 44.5795 24.5114C43.5909 24.5114 42.7159 24.7216 41.9545 25.142C41.2045 25.5625 40.6136 26.1761 40.1818 26.983C39.7614 27.7784 39.5455 28.7386 39.5341 29.8636Z" fill="#171717"/>
<path d="M65.4702 45.4432C64.3452 45.4432 63.3793 45.0455 62.5724 44.25C61.777 43.4432 61.3793 42.4773 61.3793 41.3523C61.3793 40.2386 61.777 39.2841 62.5724 38.4886C63.3793 37.6932 64.3452 37.2955 65.4702 37.2955C66.5611 37.2955 67.5156 37.6932 68.3338 38.4886C69.152 39.2841 69.5611 40.2386 69.5611 41.3523C69.5611 42.1023 69.3679 42.7898 68.9815 43.4148C68.6065 44.0284 68.1122 44.5227 67.4986 44.8977C66.8849 45.2614 66.2088 45.4432 65.4702 45.4432Z" fill="#7C3AED"/>
</svg>
