<svg width="50" height="40" viewBox="0 0 50 40" fill="none" xmlns="http://www.w3.org/2000/svg">
<path d="M1.93182 38.5455V14.5455H6.70455V17.4773H6.92045C7.13258 17.0076 7.43939 16.5303 7.84091 16.0455C8.25 15.553 8.7803 15.1439 9.43182 14.8182C10.0909 14.4848 10.9091 14.3182 11.8864 14.3182C13.1591 14.3182 14.3333 14.6515 15.4091 15.3182C16.4848 15.9773 17.3447 16.9735 17.9886 18.3068C18.6326 19.6326 18.9545 21.2955 18.9545 23.2955C18.9545 25.2424 18.6402 26.8864 18.0114 28.2273C17.3902 29.5606 16.5417 30.572 15.4659 31.2614C14.3977 31.9432 13.2008 32.2841 11.875 32.2841C10.9356 32.2841 10.1364 32.1288 9.47727 31.8182C8.82576 31.5076 8.29167 31.1174 7.875 30.6477C7.45833 30.1705 7.14015 29.6894 6.92045 29.2045H6.77273V38.5455H1.93182ZM6.67045 23.2727C6.67045 24.3106 6.81439 25.2159 7.10227 25.9886C7.39015 26.7614 7.80682 27.3636 8.35227 27.7955C8.89773 28.2197 9.56061 28.4318 10.3409 28.4318C11.1288 28.4318 11.7955 28.2159 12.3409 27.7841C12.8864 27.3447 13.2992 26.7386 13.5795 25.9659C13.8674 25.1856 14.0114 24.2879 14.0114 23.2727C14.0114 22.2652 13.8712 21.3788 13.5909 20.6136C13.3106 19.8485 12.8977 19.25 12.3523 18.8182C11.8068 18.3864 11.1364 18.1705 10.3409 18.1705C9.55303 18.1705 8.88636 18.3788 8.34091 18.7955C7.80303 19.2121 7.39015 19.803 7.10227 20.5682C6.81439 21.3333 6.67045 22.2348 6.67045 23.2727ZM26.5227 21.9091V32H21.6818V8.72727H26.3864V17.625H26.5909C26.9848 16.5947 27.6212 15.7879 28.5 15.2045C29.3788 14.6136 30.4811 14.3182 31.8068 14.3182C33.0189 14.3182 34.0758 14.5833 34.9773 15.1136C35.8864 15.6364 36.5909 16.3902 37.0909 17.375C37.5985 18.3523 37.8485 19.5227 37.8409 20.8864V32H33V21.75C33.0076 20.6742 32.7348 19.8371 32.1818 19.2386C31.6364 18.6402 30.8712 18.3409 29.8864 18.3409C29.2273 18.3409 28.6439 18.4811 28.1364 18.7614C27.6364 19.0417 27.2424 19.4508 26.9545 19.9886C26.6742 20.5189 26.5303 21.1591 26.5227 21.9091Z" fill="#171717"/>
<path d="M43.9801 32.2955C43.2301 32.2955 42.5862 32.0303 42.0483 31.5C41.518 30.9621 41.2528 30.3182 41.2528 29.5682C41.2528 28.8258 41.518 28.1894 42.0483 27.6591C42.5862 27.1288 43.2301 26.8636 43.9801 26.8636C44.7074 26.8636 45.3438 27.1288 45.8892 27.6591C46.4347 28.1894 46.7074 28.8258 46.7074 29.5682C46.7074 30.0682 46.5786 30.5265 46.321 30.9432C46.071 31.3523 45.7415 31.6818 45.3324 31.9318C44.9233 32.1742 44.4725 32.2955 43.9801 32.2955Z" fill="#7C3AED"/>
</svg>
